<svg width="270" height="270" viewBox="0 0 270 270" fill="none" xmlns="http://www.w3.org/2000/svg">
<circle cx="135.5" cy="131.5" r="131.5" fill="#FFEE54"/>
<circle cx="135.5" cy="131.5" r="112" stroke="black"/>
<path d="M45.6965 139.122V139.122C41.5012 109.554 54.2361 80.1296 78.6639 62.9498V62.9498" stroke="black"/>
<path d="M224.967 139.122V139.122C229.163 109.554 216.428 80.1296 192 62.9498V62.9498" stroke="black"/>
<path d="M132.747 87.613C133.327 87.613 133.616 87.9028 134.196 88.1926C130.718 89.6416 127.241 93.409 125.502 101.523L119.127 103.262C121.155 97.4662 125.212 87.613 132.747 87.613ZM135.935 90.511C136.514 92.2498 137.094 94.2784 137.094 97.4662C137.094 97.756 137.094 97.756 137.094 98.0458L128.69 100.364C130.429 94.2784 133.327 91.6702 135.935 90.511ZM143.469 95.7274L139.702 96.8866C139.702 96.5968 139.702 96.307 139.702 96.0172C139.702 93.409 139.412 91.3804 138.833 89.6416C140.861 90.2212 142.6 92.8294 143.469 95.7274ZM162.306 100.364C162.306 100.074 162.016 99.7846 161.727 99.7846C161.147 99.7846 155.061 99.205 155.061 99.205C155.061 99.205 150.714 94.858 150.135 94.5682C149.555 93.9886 148.686 94.2783 148.396 94.2783C148.396 94.2783 147.527 94.5682 146.078 95.1477C144.629 91.0906 142.02 87.3232 137.673 87.3232H137.384C136.224 85.5844 134.486 85.0048 133.037 85.0048C122.604 84.715 117.678 97.756 115.939 104.421C113.62 105.001 111.302 105.87 108.694 106.74C106.376 107.319 106.376 107.609 106.086 109.638C105.796 111.087 100 156.875 100 156.875L146.078 165.569L171 160.063C171 160.063 162.306 100.944 162.306 100.364Z" fill="#2C2C2C"/>
<path d="M161.437 99.7846C161.147 99.7846 155.061 99.205 155.061 99.205C155.061 99.205 150.714 94.858 150.135 94.5682C149.845 94.2784 149.845 94.2784 149.555 94.2784L146.078 165.569L171 160.063C171 160.063 162.306 100.944 162.306 100.364C162.306 100.074 161.726 99.7846 161.437 99.7846Z" fill="black"/>
<path d="M137.673 113.695L134.486 122.969C134.486 122.969 131.878 121.52 128.4 121.52C123.473 121.52 123.184 124.418 123.184 125.287C123.184 129.344 134.196 131.083 134.196 140.936C134.196 148.761 129.269 153.687 122.604 153.687C114.78 153.687 110.722 148.761 110.722 148.761L112.751 141.806C112.751 141.806 116.808 145.283 120.286 145.283C122.604 145.283 123.473 143.544 123.473 142.095C123.473 136.589 114.49 136.299 114.49 127.316C114.49 119.781 119.996 112.536 130.718 112.536C135.645 112.246 137.673 113.695 137.673 113.695Z" fill="#FFFFFE"/>
<path d="M50.6282 154.673L42.2403 155.737L42.0177 153.981L45.424 153.549L44.9447 149.771L41.5384 150.203L41.3157 148.448L49.7036 147.384L49.9263 149.139L46.3921 149.587L46.8714 153.366L50.4055 152.917L50.6282 154.673Z" fill="black"/>
<path d="M55.6317 168.633C56.4776 170.956 55.4561 172.98 52.8958 173.912L52.8903 173.914C50.3301 174.847 48.2553 173.943 47.4114 171.625C46.7099 169.698 47.4236 167.873 49.0523 167.106L49.0999 167.082L49.6891 168.701L49.6035 168.757C48.7963 169.263 48.4602 170.121 48.8209 171.112C49.2839 172.384 50.6047 172.826 52.2675 172.221L52.273 172.219C53.9468 171.609 54.6852 170.418 54.2222 169.146C53.8735 168.188 53.0783 167.716 52.0587 167.845L51.9996 167.854L51.4103 166.235L51.4729 166.218C53.2193 165.757 54.9322 166.711 55.6317 168.633Z" fill="black"/>
<path d="M67.5851 189.696L58.8775 191.79L57.7514 190.042L63.2647 182.986L64.2702 184.548L62.8917 186.195L64.5095 188.708L66.5795 188.134L67.5851 189.696ZM59.7049 190.045L63.1741 189.08L62.0004 187.257L59.6859 190.015L59.7049 190.045Z" fill="black"/>
<path d="M78.9613 200.716C80.7734 202.458 80.7359 204.755 78.8721 206.694L78.864 206.702C77.0001 208.641 74.7025 208.757 72.8988 207.023C71.0908 205.285 71.1241 202.984 72.9839 201.05L72.992 201.041C74.8558 199.102 77.1491 198.974 78.9613 200.716ZM77.9217 201.798C76.9079 200.823 75.5072 201.029 74.2931 202.292L74.2849 202.3C73.0627 203.572 72.9372 204.979 73.9383 205.942C74.9352 206.9 76.3366 206.727 77.5629 205.451L77.571 205.443C78.7973 204.167 78.9229 202.76 77.9217 201.798Z" fill="black"/>
<path d="M94.2701 211.187C96.3875 212.464 96.8638 214.681 95.4566 217.014L95.4536 217.019C94.0465 219.352 91.8645 219.952 89.7522 218.678C87.9961 217.619 87.4054 215.75 88.1909 214.13L88.2132 214.082L89.6883 214.972L89.6569 215.069C89.3464 215.97 89.6237 216.849 90.5268 217.394C91.6859 218.093 92.9913 217.607 93.9052 216.092L93.9082 216.087C94.8282 214.562 94.6545 213.17 93.4955 212.471C92.6224 211.945 91.7077 212.077 90.9945 212.817L90.9542 212.862L89.4791 211.972L89.5174 211.92C90.5869 210.464 92.519 210.131 94.2701 211.187Z" fill="black"/>
<path d="M118.322 220.196L115.99 228.323L110.606 226.778L111.008 225.376L114.691 226.433L115.251 224.484L111.776 223.487L112.157 222.158L115.632 223.155L116.219 221.111L112.536 220.053L112.938 218.651L118.322 220.196Z" fill="black"/>
<path d="M132.753 221.475C135.218 221.665 136.639 223.432 136.43 226.148L136.43 226.154C136.22 228.871 134.54 230.387 132.081 230.197C130.036 230.039 128.669 228.635 128.643 226.835L128.641 226.782L130.359 226.914L130.375 227.016C130.502 227.96 131.144 228.62 132.196 228.702C133.545 228.806 134.494 227.786 134.63 226.021L134.63 226.015C134.767 224.239 133.987 223.075 132.638 222.97C131.621 222.892 130.863 223.421 130.559 224.403L130.542 224.46L128.825 224.328L128.836 224.264C129.137 222.483 130.714 221.318 132.753 221.475Z" fill="black"/>
<path d="M154.778 219.68L155.924 228.058L152.464 228.531C150.583 228.788 149.332 227.942 149.101 226.258L149.1 226.247C148.949 225.144 149.41 224.146 150.289 223.653L148.073 220.597L150.059 220.326L152.035 223.148L153.44 222.956L153.025 219.92L154.778 219.68ZM153.622 224.286L152.107 224.493C151.236 224.612 150.781 225.177 150.894 226.001L150.895 226.013C151.005 226.814 151.626 227.25 152.491 227.131L153.983 226.927L153.622 224.286Z" fill="black"/>
<path d="M170.685 214.257L173.492 222.232L168.208 224.092L167.724 222.716L171.339 221.443L170.666 219.531L167.255 220.731L166.796 219.427L170.206 218.227L169.5 216.22L165.886 217.493L165.401 216.116L170.685 214.257Z" fill="black"/>
<path d="M191.707 201.391L196.353 208.455L194.645 209.579L189.298 205.823L189.269 205.842L190.601 212.238L188.893 213.362L184.246 206.298L185.563 205.432L188.706 210.21L188.75 210.181L187.511 204.151L188.441 203.539L193.493 207.061L193.532 207.035L190.39 202.257L191.707 201.391Z" fill="black"/>
<path d="M208.483 182.143L214.979 187.555L213.671 189.126L207.464 187.083L207.442 187.11L210.573 192.845L209.264 194.416L202.768 189.004L203.776 187.793L208.17 191.453L208.204 191.413L205.269 186.001L205.981 185.146L211.838 187.05L211.868 187.014L207.474 183.354L208.483 182.143Z" fill="black"/>
<path d="M215.555 166.788C216.604 164.504 218.786 163.785 221.229 164.908L221.24 164.913C223.684 166.036 224.548 168.168 223.504 170.441C222.456 172.72 220.273 173.445 217.834 172.324L217.824 172.319C215.38 171.196 214.505 169.072 215.555 166.788ZM216.918 167.415C216.33 168.693 216.985 169.948 218.577 170.679L218.588 170.684C220.19 171.421 221.561 171.077 222.141 169.815C222.718 168.559 222.094 167.292 220.486 166.553L220.476 166.548C218.868 165.809 217.498 166.153 216.918 167.415Z" fill="black"/>
<path d="M220.412 148.889C220.922 146.469 222.86 145.291 225.526 145.853L225.531 145.854C228.197 146.416 229.481 148.28 228.972 150.694C228.549 152.7 226.978 153.872 225.19 153.663L225.137 153.658L225.493 151.972L225.595 151.97C226.548 151.967 227.287 151.416 227.504 150.384C227.784 149.06 226.896 147.986 225.165 147.621L225.159 147.62C223.416 147.253 222.159 147.874 221.88 149.198C221.67 150.196 222.095 151.016 223.029 151.447L223.084 151.47L222.728 153.156L222.666 153.137C220.94 152.605 219.99 150.89 220.412 148.889Z" fill="black"/>
<path d="M182.184 62.4873L184.085 59.9657L184.926 53.9655L186.451 55.1156L185.794 59.1404L185.827 59.1651L189.511 57.4228L191.041 58.5764L185.498 61.0311L183.597 63.5527L182.184 62.4873Z" fill="black"/>
<path d="M166.361 54.4121L169.989 46.7748L174.991 49.1504L174.365 50.4683L170.961 48.8519L169.989 50.9001L173.095 52.3758L172.495 53.6407L169.388 52.1651L167.96 55.1713L166.361 54.4121Z" fill="black"/>
<path d="M158.249 51.9109L160.844 43.8637L162.528 44.4066L159.933 52.4539L158.249 51.9109Z" fill="black"/>
<path d="M144.273 49.0874L145.789 40.7694L149.132 41.3788C150.885 41.6982 151.849 43.0413 151.537 44.7533L151.535 44.7648C151.223 46.4769 149.847 47.3934 148.094 47.074L146.492 46.7819L146.014 49.4047L144.273 49.0874ZM148.455 42.6787L147.279 42.4644L146.74 45.4215L147.916 45.6359C148.913 45.8176 149.598 45.3945 149.77 44.4491L149.772 44.4376C149.944 43.4922 149.452 42.8605 148.455 42.6787Z" fill="black"/>
<path d="M128.415 49.133C125.902 49.1893 124.301 47.5431 124.24 44.8543L124.24 44.8426C124.18 42.1538 125.718 40.4432 128.219 40.3872C130.727 40.331 132.334 41.9771 132.394 44.66L132.395 44.6718C132.455 47.3605 130.928 49.0768 128.415 49.133ZM128.382 47.6334C129.788 47.6019 130.63 46.4637 130.59 44.7121L130.59 44.7004C130.551 42.9372 129.641 41.8557 128.253 41.8868C126.871 41.9178 126.005 43.0331 126.044 44.8022L126.045 44.8139C126.084 46.583 126.993 47.6645 128.382 47.6334Z" fill="black"/>
<path d="M104.992 53.8491L102.855 45.6684L104.568 45.2213L105.435 48.5435L109.12 47.5811L108.253 44.2589L109.965 43.8118L112.101 51.9925L110.389 52.4396L109.489 48.9927L105.804 49.9551L106.704 53.402L104.992 53.8491Z" fill="black"/>
<path d="M94.0011 59.4075C92.1985 60.2963 90.6303 60.0439 89.8516 58.6901L89.8049 58.6086L91.3026 57.8701L91.3417 57.9227C91.7317 58.462 92.5385 58.5215 93.4056 58.094C94.2832 57.6612 94.6459 57.0055 94.3608 56.4274L94.3582 56.4221C94.1043 55.9071 93.6042 55.8336 92.5676 56.103L91.6911 56.3393C90.0456 56.7783 88.9365 56.4367 88.3741 55.2964L88.3715 55.2911C87.6874 53.9037 88.4452 52.3933 90.1269 51.5641C91.8821 50.6985 93.3922 51.0449 94.1214 52.3382L94.1758 52.4355L92.6781 53.174L92.6418 53.1135C92.2701 52.5586 91.5448 52.4655 90.7617 52.8516C89.9498 53.2585 89.645 53.8726 89.912 54.4139L89.9145 54.4192C90.1504 54.8974 90.6766 54.9841 91.6345 54.7274L92.5188 54.4938C94.2614 54.0265 95.2948 54.3205 95.8831 55.5134L95.8857 55.5187C96.6035 56.9744 95.9139 58.4642 94.0011 59.4075Z" fill="black"/>
</svg>
