<svg width="460" height="269" viewBox="0 0 460 269" fill="none" xmlns="http://www.w3.org/2000/svg">
<g clip-path="url(#clip0_5538_126)">
<circle cx="230.696" cy="134.5" r="131.5" fill="#FFEE54"/>
<circle cx="230.696" cy="134.5" r="112" stroke="black"/>
<path d="M140.893 142.122V142.122C136.698 112.554 149.432 83.1296 173.86 65.9498V65.9498" stroke="black"/>
<path d="M320.164 142.122V142.122C324.359 112.554 311.624 83.1296 287.196 65.9498V65.9498" stroke="black"/>
<path d="M227.943 90.613C228.523 90.613 228.813 90.9028 229.392 91.1926C225.915 92.6416 222.437 96.409 220.698 104.523L214.323 106.262C216.352 100.466 220.409 90.613 227.943 90.613ZM231.131 93.511C231.711 95.2498 232.29 97.2784 232.29 100.466C232.29 100.756 232.29 100.756 232.29 101.046L223.886 103.364C225.625 97.2784 228.523 94.6702 231.131 93.511ZM238.666 98.7274L234.898 99.8866C234.898 99.5968 234.898 99.307 234.898 99.0172C234.898 96.409 234.609 94.3804 234.029 92.6416C236.058 93.2212 237.796 95.8294 238.666 98.7274ZM257.503 103.364C257.503 103.074 257.213 102.785 256.923 102.785C256.343 102.785 250.258 102.205 250.258 102.205C250.258 102.205 245.911 97.858 245.331 97.5682C244.752 96.9886 243.882 97.2783 243.592 97.2783C243.592 97.2783 242.723 97.5682 241.274 98.1477C239.825 94.0906 237.217 90.3232 232.87 90.3232H232.58C231.421 88.5844 229.682 88.0048 228.233 88.0048C217.8 87.715 212.874 100.756 211.135 107.421C208.817 108.001 206.498 108.87 203.89 109.74C201.572 110.319 201.572 110.609 201.282 112.638C200.992 114.087 195.196 159.875 195.196 159.875L241.274 168.569L266.196 163.063C266.196 163.063 257.503 103.944 257.503 103.364Z" fill="#2C2C2C"/>
<path d="M256.633 102.785C256.343 102.785 250.258 102.205 250.258 102.205C250.258 102.205 245.911 97.858 245.331 97.5682C245.041 97.2784 245.041 97.2784 244.751 97.2784L241.274 168.569L266.196 163.063C266.196 163.063 257.502 103.944 257.502 103.364C257.502 103.074 256.923 102.785 256.633 102.785Z" fill="black"/>
<path d="M232.87 116.695L229.682 125.969C229.682 125.969 227.074 124.52 223.596 124.52C218.67 124.52 218.38 127.418 218.38 128.287C218.38 132.344 229.392 134.083 229.392 143.936C229.392 151.761 224.466 156.687 217.8 156.687C209.976 156.687 205.919 151.761 205.919 151.761L207.947 144.806C207.947 144.806 212.005 148.283 215.482 148.283C217.8 148.283 218.67 146.544 218.67 145.095C218.67 139.589 209.686 139.299 209.686 130.316C209.686 122.781 215.192 115.536 225.915 115.536C230.841 115.246 232.87 116.695 232.87 116.695Z" fill="#FFFFFE"/>
<path d="M145.825 157.673L137.437 158.737L137.214 156.981L140.62 156.549L140.141 152.771L136.735 153.203L136.512 151.448L144.9 150.384L145.123 152.139L141.588 152.587L142.068 156.366L145.602 155.917L145.825 157.673Z" fill="black"/>
<path d="M150.828 171.633C151.674 173.956 150.652 175.98 148.092 176.912L148.087 176.914C145.526 177.847 143.452 176.943 142.608 174.625C141.906 172.698 142.62 170.873 144.249 170.106L144.296 170.082L144.886 171.701L144.8 171.757C143.993 172.263 143.657 173.121 144.017 174.112C144.48 175.384 145.801 175.826 147.464 175.221L147.469 175.219C149.143 174.609 149.882 173.418 149.419 172.146C149.07 171.188 148.275 170.716 147.255 170.845L147.196 170.854L146.607 169.235L146.669 169.218C148.416 168.757 150.129 169.711 150.828 171.633Z" fill="black"/>
<path d="M162.782 192.696L154.074 194.79L152.948 193.042L158.461 185.986L159.467 187.548L158.088 189.195L159.706 191.708L161.776 191.134L162.782 192.696ZM154.901 193.045L158.371 192.08L157.197 190.257L154.882 193.015L154.901 193.045Z" fill="black"/>
<path d="M174.158 203.716C175.97 205.458 175.932 207.755 174.068 209.694L174.06 209.702C172.197 211.641 169.899 211.757 168.095 210.023C166.287 208.285 166.321 205.984 168.18 204.05L168.188 204.041C170.052 202.102 172.345 201.974 174.158 203.716ZM173.118 204.798C172.104 203.823 170.704 204.029 169.489 205.292L169.481 205.3C168.259 206.572 168.134 207.979 169.135 208.942C170.132 209.9 171.533 209.727 172.759 208.451L172.767 208.443C173.994 207.167 174.119 205.76 173.118 204.798Z" fill="black"/>
<path d="M189.467 214.187C191.584 215.464 192.06 217.681 190.653 220.014L190.65 220.019C189.243 222.352 187.061 222.952 184.949 221.678C183.192 220.619 182.602 218.75 183.387 217.13L183.41 217.082L184.885 217.972L184.853 218.069C184.543 218.97 184.82 219.849 185.723 220.394C186.882 221.093 188.188 220.607 189.102 219.092L189.105 219.087C190.025 217.562 189.851 216.17 188.692 215.471C187.819 214.945 186.904 215.077 186.191 215.817L186.151 215.862L184.676 214.972L184.714 214.92C185.783 213.464 187.715 213.131 189.467 214.187Z" fill="black"/>
<path d="M213.519 223.196L211.186 231.323L205.802 229.778L206.205 228.376L209.888 229.433L210.447 227.484L206.972 226.487L207.354 225.158L210.829 226.155L211.415 224.111L207.732 223.053L208.135 221.651L213.519 223.196Z" fill="black"/>
<path d="M227.949 224.475C230.415 224.665 231.836 226.432 231.626 229.148L231.626 229.154C231.417 231.871 229.736 233.387 227.277 233.197C225.232 233.039 223.865 231.635 223.84 229.835L223.838 229.782L225.555 229.914L225.571 230.016C225.698 230.96 226.341 231.62 227.392 231.702C228.742 231.806 229.69 230.786 229.826 229.021L229.827 229.015C229.964 227.239 229.184 226.075 227.834 225.97C226.818 225.892 226.06 226.421 225.755 227.403L225.739 227.46L224.021 227.328L224.032 227.264C224.334 225.483 225.911 224.318 227.949 224.475Z" fill="black"/>
<path d="M249.975 222.68L251.12 231.058L247.66 231.531C245.779 231.788 244.528 230.942 244.298 229.258L244.296 229.247C244.145 228.144 244.606 227.146 245.485 226.653L243.269 223.597L245.255 223.326L247.232 226.148L248.637 225.956L248.221 222.92L249.975 222.68ZM248.818 227.286L247.303 227.493C246.432 227.612 245.977 228.177 246.09 229.001L246.092 229.013C246.201 229.814 246.823 230.25 247.688 230.131L249.18 229.927L248.818 227.286Z" fill="black"/>
<path d="M265.881 217.257L268.689 225.232L263.405 227.092L262.92 225.716L266.535 224.443L265.862 222.531L262.452 223.731L261.993 222.427L265.403 221.227L264.697 219.22L261.082 220.493L260.598 219.116L265.881 217.257Z" fill="black"/>
<path d="M286.903 204.391L291.549 211.455L289.841 212.579L284.495 208.823L284.465 208.842L285.797 215.238L284.089 216.362L279.443 209.298L280.759 208.432L283.902 213.21L283.946 213.181L282.708 207.151L283.638 206.539L288.69 210.061L288.729 210.035L285.586 205.257L286.903 204.391Z" fill="black"/>
<path d="M303.679 185.143L310.176 190.555L308.867 192.126L302.661 190.083L302.638 190.11L305.769 195.845L304.461 197.416L297.964 192.004L298.973 190.793L303.367 194.453L303.401 194.413L300.465 189.001L301.178 188.146L307.034 190.05L307.064 190.014L302.67 186.354L303.679 185.143Z" fill="black"/>
<path d="M310.751 169.788C311.801 167.504 313.982 166.785 316.426 167.908L316.436 167.913C318.88 169.036 319.745 171.168 318.7 173.441C317.653 175.72 315.469 176.445 313.031 175.324L313.02 175.319C310.576 174.196 309.701 172.072 310.751 169.788ZM312.114 170.415C311.527 171.693 312.182 172.948 313.774 173.679L313.784 173.684C315.387 174.421 316.757 174.077 317.337 172.815C317.914 171.559 317.291 170.292 315.683 169.553L315.672 169.548C314.064 168.809 312.694 169.153 312.114 170.415Z" fill="black"/>
<path d="M315.609 151.889C316.119 149.469 318.056 148.291 320.722 148.853L320.728 148.854C323.394 149.416 324.677 151.28 324.168 153.694C323.745 155.7 322.175 156.872 320.387 156.663L320.334 156.658L320.689 154.972L320.792 154.97C321.744 154.967 322.483 154.416 322.701 153.384C322.98 152.06 322.093 150.986 320.361 150.621L320.355 150.62C318.612 150.253 317.356 150.874 317.076 152.198C316.866 153.196 317.292 154.016 318.225 154.447L318.28 154.47L317.925 156.156L317.863 156.137C316.136 155.605 315.187 153.89 315.609 151.889Z" fill="black"/>
<path d="M277.38 65.4873L279.282 62.9657L280.122 56.9655L281.648 58.1156L280.99 62.1404L281.023 62.1651L284.707 60.4228L286.237 61.5764L280.695 64.0311L278.793 66.5527L277.38 65.4873Z" fill="black"/>
<path d="M261.558 57.4121L265.185 49.7748L270.187 52.1504L269.561 53.4683L266.158 51.8519L265.185 53.9001L268.292 55.3758L267.691 56.6407L264.584 55.1651L263.156 58.1713L261.558 57.4121Z" fill="black"/>
<path d="M253.446 54.9109L256.04 46.8637L257.724 47.4066L255.13 55.4539L253.446 54.9109Z" fill="black"/>
<path d="M239.469 52.0874L240.986 43.7694L244.329 44.3788C246.081 44.6982 247.045 46.0413 246.733 47.7533L246.731 47.7648C246.419 49.4769 245.043 50.3934 243.291 50.074L241.688 49.7819L241.21 52.4047L239.469 52.0874ZM243.651 45.6787L242.475 45.4644L241.936 48.4215L243.112 48.6359C244.109 48.8176 244.794 48.3945 244.966 47.4491L244.968 47.4376C245.141 46.4922 244.648 45.8605 243.651 45.6787Z" fill="black"/>
<path d="M223.612 52.133C221.099 52.1893 219.497 50.5431 219.437 47.8543L219.436 47.8426C219.376 45.1538 220.915 43.4432 223.416 43.3872C225.923 43.331 227.531 44.9771 227.591 47.66L227.591 47.6718C227.651 50.3605 226.125 52.0768 223.612 52.133ZM223.578 50.6334C224.984 50.6019 225.826 49.4637 225.787 47.7121L225.786 47.7004C225.747 45.9372 224.838 44.8557 223.449 44.8868C222.067 44.9178 221.201 46.0331 221.241 47.8022L221.241 47.8139C221.281 49.583 222.19 50.6645 223.578 50.6334Z" fill="black"/>
<path d="M200.188 56.8491L198.052 48.6684L199.764 48.2213L200.632 51.5435L204.317 50.5811L203.449 47.2589L205.161 46.8118L207.297 54.9925L205.585 55.4396L204.685 51.9927L201 52.9551L201.9 56.402L200.188 56.8491Z" fill="black"/>
<path d="M189.197 62.4075C187.395 63.2963 185.827 63.0439 185.048 61.6901L185.001 61.6086L186.499 60.8701L186.538 60.9227C186.928 61.462 187.735 61.5215 188.602 61.094C189.48 60.6612 189.842 60.0055 189.557 59.4274L189.555 59.4221C189.301 58.9071 188.801 58.8336 187.764 59.103L186.887 59.3393C185.242 59.7783 184.133 59.4367 183.571 58.2964L183.568 58.2911C182.884 56.9037 183.642 55.3933 185.323 54.5641C187.078 53.6985 188.589 54.0449 189.318 55.3382L189.372 55.4355L187.875 56.174L187.838 56.1135C187.467 55.5586 186.741 55.4655 185.958 55.8516C185.146 56.2585 184.841 56.8726 185.108 57.4139L185.111 57.4192C185.347 57.8974 185.873 57.9841 186.831 57.7274L187.715 57.4938C189.458 57.0265 190.491 57.3205 191.079 58.5134L191.082 58.5187C191.8 59.9744 191.11 61.4642 189.197 62.4075Z" fill="black"/>
</g>
<defs>
<clipPath id="clip0_5538_126">
<rect width="460" height="269" fill="white"/>
</clipPath>
</defs>
</svg>
